<svg xmlns="http://www.w3.org/2000/svg" viewBox="0 0 1000 500" width="1000" height="500" role="img">
  <defs>
    <linearGradient id="plate" x1="0" y1="0" x2="0" y2="1">
      <stop offset="0" stop-color="#141416"/>
      <stop offset="1" stop-color="#0d0d0e"/>
    </linearGradient>
    <filter id="grain" x="0" y="0" width="100%" height="100%">
      <feTurbulence type="fractalNoise" baseFrequency="0.8" numOctaves="3" seed="7" result="n"/>
      <feColorMatrix in="n" type="saturate" values="0"/>
      <feComponentTransfer><feFuncA type="linear" slope="0.055"/></feComponentTransfer>
    </filter>
    
  </defs>
  <rect width="1000" height="500" fill="url(#plate)"/>
  <rect x="330" y="90" width="52" height="52" rx="3" fill="#a3e635" opacity="0.85"/><rect x="386" y="90" width="52" height="52" rx="3" fill="#a3e635" opacity="0.3"/><rect x="442" y="90" width="52" height="52" rx="3" fill="#a3e635" opacity="0.06"/><rect x="498" y="90" width="52" height="52" rx="3" fill="#a3e635" opacity="0.06"/><rect x="554" y="90" width="52" height="52" rx="3" fill="#a3e635" opacity="0.06"/><rect x="610" y="90" width="52" height="52" rx="3" fill="#a3e635" opacity="0.06"/><rect x="330" y="146" width="52" height="52" rx="3" fill="#a3e635" opacity="0.3"/><rect x="386" y="146" width="52" height="52" rx="3" fill="#a3e635" opacity="0.85"/><rect x="442" y="146" width="52" height="52" rx="3" fill="#a3e635" opacity="0.3"/><rect x="498" y="146" width="52" height="52" rx="3" fill="#a3e635" opacity="0.06"/><rect x="554" y="146" width="52" height="52" rx="3" fill="#a3e635" opacity="0.06"/><rect x="610" y="146" width="52" height="52" rx="3" fill="#a3e635" opacity="0.06"/><rect x="330" y="202" width="52" height="52" rx="3" fill="#a3e635" opacity="0.06"/><rect x="386" y="202" width="52" height="52" rx="3" fill="#a3e635" opacity="0.3"/><rect x="442" y="202" width="52" height="52" rx="3" fill="#a3e635" opacity="0.85"/><rect x="498" y="202" width="52" height="52" rx="3" fill="#a3e635" opacity="0.3"/><rect x="554" y="202" width="52" height="52" rx="3" fill="#a3e635" opacity="0.06"/><rect x="610" y="202" width="52" height="52" rx="3" fill="#a3e635" opacity="0.06"/><rect x="330" y="258" width="52" height="52" rx="3" fill="#a3e635" opacity="0.06"/><rect x="386" y="258" width="52" height="52" rx="3" fill="#a3e635" opacity="0.06"/><rect x="442" y="258" width="52" height="52" rx="3" fill="#a3e635" opacity="0.3"/><rect x="498" y="258" width="52" height="52" rx="3" fill="#a3e635" opacity="0.85"/><rect x="554" y="258" width="52" height="52" rx="3" fill="#a3e635" opacity="0.3"/><rect x="610" y="258" width="52" height="52" rx="3" fill="#a3e635" opacity="0.06"/><rect x="330" y="314" width="52" height="52" rx="3" fill="#a3e635" opacity="0.06"/><rect x="386" y="314" width="52" height="52" rx="3" fill="#a3e635" opacity="0.06"/><rect x="442" y="314" width="52" height="52" rx="3" fill="#a3e635" opacity="0.06"/><rect x="498" y="314" width="52" height="52" rx="3" fill="#a3e635" opacity="0.3"/><rect x="554" y="314" width="52" height="52" rx="3" fill="#a3e635" opacity="0.85"/><rect x="610" y="314" width="52" height="52" rx="3" fill="#a3e635" opacity="0.3"/><rect x="330" y="370" width="52" height="52" rx="3" fill="#a3e635" opacity="0.06"/><rect x="386" y="370" width="52" height="52" rx="3" fill="#a3e635" opacity="0.06"/><rect x="442" y="370" width="52" height="52" rx="3" fill="#a3e635" opacity="0.06"/><rect x="498" y="370" width="52" height="52" rx="3" fill="#a3e635" opacity="0.06"/><rect x="554" y="370" width="52" height="52" rx="3" fill="#a3e635" opacity="0.3"/><rect x="610" y="370" width="52" height="52" rx="3" fill="#a3e635" opacity="0.85"/>
  <text x="60" y="460" font-family="Geist Mono, ui-monospace, monospace" font-size="17" letter-spacing="1.6" fill="#8f8f8f">THE DIAGONAL IS THE PART EVERYONE READS</text>
  <rect width="1000" height="500" filter="url(#grain)" opacity="0.85"/>
  <rect x="0.5" y="0.5" width="999" height="499" fill="none" stroke="rgba(255,255,255,0.10)"/>
</svg>