<svg xmlns="http://www.w3.org/2000/svg" viewBox="0 0 368 496" width="368" height="496" role="img">
  <defs>
    <linearGradient id="plate" x1="0" y1="0" x2="0" y2="1">
      <stop offset="0" stop-color="#141416"/>
      <stop offset="1" stop-color="#0d0d0e"/>
    </linearGradient>
    <filter id="grain" x="0" y="0" width="100%" height="100%">
      <feTurbulence type="fractalNoise" baseFrequency="0.8" numOctaves="3" seed="7" result="n"/>
      <feColorMatrix in="n" type="saturate" values="0"/>
      <feComponentTransfer><feFuncA type="linear" slope="0.055"/></feComponentTransfer>
    </filter>
    
  </defs>
  <rect width="368" height="496" fill="#7c4a06"/>
  <g filter="url(#blur-soft)"><circle cx="188" cy="210" r="141" fill="#7c4a06" opacity="0.22"/><circle cx="313" cy="213" r="62" fill="#f59e0b" opacity="0.21"/><circle cx="224" cy="179" r="122" fill="#7c4a06" opacity="0.27"/><circle cx="155" cy="266" r="152" fill="#f59e0b" opacity="0.13"/><circle cx="66" cy="110" r="109" fill="#7c4a06" opacity="0.18"/><circle cx="214" cy="51" r="140" fill="#f59e0b" opacity="0.22"/><circle cx="154" cy="335" r="171" fill="#7c4a06" opacity="0.25"/></g>
  <defs><filter id="blur-soft"><feGaussianBlur stdDeviation="34"/></filter></defs>
  <path d="M0 30H368" stroke="rgba(255,255,255,0.05)" stroke-width="1"/><path d="M0 60H368" stroke="rgba(255,255,255,0.05)" stroke-width="1"/><path d="M0 90H368" stroke="rgba(255,255,255,0.05)" stroke-width="1"/><path d="M0 120H368" stroke="rgba(255,255,255,0.05)" stroke-width="1"/><path d="M0 150H368" stroke="rgba(255,255,255,0.05)" stroke-width="1"/><path d="M0 180H368" stroke="rgba(255,255,255,0.05)" stroke-width="1"/><path d="M0 210H368" stroke="rgba(255,255,255,0.05)" stroke-width="1"/><path d="M0 240H368" stroke="rgba(255,255,255,0.05)" stroke-width="1"/><path d="M0 270H368" stroke="rgba(255,255,255,0.05)" stroke-width="1"/><path d="M0 300H368" stroke="rgba(255,255,255,0.05)" stroke-width="1"/><path d="M0 330H368" stroke="rgba(255,255,255,0.05)" stroke-width="1"/><path d="M0 360H368" stroke="rgba(255,255,255,0.05)" stroke-width="1"/><path d="M0 390H368" stroke="rgba(255,255,255,0.05)" stroke-width="1"/><path d="M0 420H368" stroke="rgba(255,255,255,0.05)" stroke-width="1"/><path d="M0 450H368" stroke="rgba(255,255,255,0.05)" stroke-width="1"/><path d="M0 480H368" stroke="rgba(255,255,255,0.05)" stroke-width="1"/>
  <rect width="368" height="496" filter="url(#grain)" opacity="1"/>
  <rect x="0" y="404" width="368" height="92" fill="rgba(0,0,0,0.55)"/>
  <g font-family="Geist Mono, ui-monospace, monospace">
    <text x="20" y="438" font-size="13" letter-spacing="1.4" fill="#f59e0b">LAB / 03.26</text>
    <text x="20" y="464" font-size="15" fill="#f2f2f2">Spindle rig, first run</text>
  </g>
</svg>