<svg xmlns="http://www.w3.org/2000/svg" viewBox="0 0 1200 750" width="1200" height="750" role="img">
  <defs>
    <linearGradient id="plate" x1="0" y1="0" x2="0" y2="1">
      <stop offset="0" stop-color="#141416"/>
      <stop offset="1" stop-color="#0d0d0e"/>
    </linearGradient>
    <filter id="grain" x="0" y="0" width="100%" height="100%">
      <feTurbulence type="fractalNoise" baseFrequency="0.8" numOctaves="3" seed="7" result="n"/>
      <feColorMatrix in="n" type="saturate" values="0"/>
      <feComponentTransfer><feFuncA type="linear" slope="0.055"/></feComponentTransfer>
    </filter>
    
  </defs>
  <rect width="1200" height="750" fill="url(#plate)"/>
  
  <g>
    <rect x="48" y="46" width="1104" height="42" rx="6" fill="#6b1d2b" opacity="0.35" stroke="#fb7185" stroke-width="1"/>
    <text x="68" y="73" font-family="Geist Mono, ui-monospace, monospace" font-size="19" letter-spacing="1" fill="#fb7185">BUILD FAILED  56/60 PASS  schema assertion, 4 cases</text>
  </g><rect x="156" y="120" width="68" height="68" rx="3"
        fill="#2dd4bf" opacity="0.428"
        stroke="none" stroke-width="0"/><path d="M176 154l10 11 18 -21" stroke="#f2f2f2" stroke-width="2" fill="none" opacity="0.75"/><rect x="230" y="120" width="68" height="68" rx="3"
        fill="#2dd4bf" opacity="0.282"
        stroke="none" stroke-width="0"/><path d="M250 154l10 11 18 -21" stroke="#f2f2f2" stroke-width="2" fill="none" opacity="0.75"/><rect x="304" y="120" width="68" height="68" rx="3"
        fill="#2dd4bf" opacity="0.395"
        stroke="none" stroke-width="0"/><path d="M324 154l10 11 18 -21" stroke="#f2f2f2" stroke-width="2" fill="none" opacity="0.75"/><rect x="378" y="120" width="68" height="68" rx="3"
        fill="#2dd4bf" opacity="0.461"
        stroke="none" stroke-width="0"/><path d="M398 154l10 11 18 -21" stroke="#f2f2f2" stroke-width="2" fill="none" opacity="0.75"/><rect x="452" y="120" width="68" height="68" rx="3"
        fill="#2dd4bf" opacity="0.394"
        stroke="none" stroke-width="0"/><path d="M472 154l10 11 18 -21" stroke="#f2f2f2" stroke-width="2" fill="none" opacity="0.75"/><rect x="526" y="120" width="68" height="68" rx="3"
        fill="#2dd4bf" opacity="0.220"
        stroke="none" stroke-width="0"/><path d="M546 154l10 11 18 -21" stroke="#f2f2f2" stroke-width="2" fill="none" opacity="0.75"/><rect x="600" y="120" width="68" height="68" rx="3"
        fill="#2dd4bf" opacity="0.280"
        stroke="none" stroke-width="0"/><path d="M620 154l10 11 18 -21" stroke="#f2f2f2" stroke-width="2" fill="none" opacity="0.75"/><rect x="674" y="120" width="68" height="68" rx="3"
        fill="#6b1d2b" opacity="0.65"
        stroke="#fb7185" stroke-width="1.5"/><path d="M696 142l24 24M720 142l-24 24" stroke="#fb7185" stroke-width="2"/><rect x="748" y="120" width="68" height="68" rx="3"
        fill="#2dd4bf" opacity="0.447"
        stroke="none" stroke-width="0"/><path d="M768 154l10 11 18 -21" stroke="#f2f2f2" stroke-width="2" fill="none" opacity="0.75"/><rect x="822" y="120" width="68" height="68" rx="3"
        fill="#2dd4bf" opacity="0.510"
        stroke="none" stroke-width="0"/><path d="M842 154l10 11 18 -21" stroke="#f2f2f2" stroke-width="2" fill="none" opacity="0.75"/><rect x="896" y="120" width="68" height="68" rx="3"
        fill="#2dd4bf" opacity="0.309"
        stroke="none" stroke-width="0"/><path d="M916 154l10 11 18 -21" stroke="#f2f2f2" stroke-width="2" fill="none" opacity="0.75"/><rect x="970" y="120" width="68" height="68" rx="3"
        fill="#2dd4bf" opacity="0.497"
        stroke="none" stroke-width="0"/><path d="M990 154l10 11 18 -21" stroke="#f2f2f2" stroke-width="2" fill="none" opacity="0.75"/><rect x="156" y="194" width="68" height="68" rx="3"
        fill="#2dd4bf" opacity="0.482"
        stroke="none" stroke-width="0"/><path d="M176 228l10 11 18 -21" stroke="#f2f2f2" stroke-width="2" fill="none" opacity="0.75"/><rect x="230" y="194" width="68" height="68" rx="3"
        fill="#2dd4bf" opacity="0.251"
        stroke="none" stroke-width="0"/><path d="M250 228l10 11 18 -21" stroke="#f2f2f2" stroke-width="2" fill="none" opacity="0.75"/><rect x="304" y="194" width="68" height="68" rx="3"
        fill="#2dd4bf" opacity="0.427"
        stroke="none" stroke-width="0"/><path d="M324 228l10 11 18 -21" stroke="#f2f2f2" stroke-width="2" fill="none" opacity="0.75"/><rect x="378" y="194" width="68" height="68" rx="3"
        fill="#2dd4bf" opacity="0.306"
        stroke="none" stroke-width="0"/><path d="M398 228l10 11 18 -21" stroke="#f2f2f2" stroke-width="2" fill="none" opacity="0.75"/><rect x="452" y="194" width="68" height="68" rx="3"
        fill="#2dd4bf" opacity="0.477"
        stroke="none" stroke-width="0"/><path d="M472 228l10 11 18 -21" stroke="#f2f2f2" stroke-width="2" fill="none" opacity="0.75"/><rect x="526" y="194" width="68" height="68" rx="3"
        fill="#2dd4bf" opacity="0.374"
        stroke="none" stroke-width="0"/><path d="M546 228l10 11 18 -21" stroke="#f2f2f2" stroke-width="2" fill="none" opacity="0.75"/><rect x="600" y="194" width="68" height="68" rx="3"
        fill="#2dd4bf" opacity="0.373"
        stroke="none" stroke-width="0"/><path d="M620 228l10 11 18 -21" stroke="#f2f2f2" stroke-width="2" fill="none" opacity="0.75"/><rect x="674" y="194" width="68" height="68" rx="3"
        fill="#6b1d2b" opacity="0.65"
        stroke="#fb7185" stroke-width="1.5"/><path d="M696 216l24 24M720 216l-24 24" stroke="#fb7185" stroke-width="2"/><rect x="748" y="194" width="68" height="68" rx="3"
        fill="#2dd4bf" opacity="0.439"
        stroke="none" stroke-width="0"/><path d="M768 228l10 11 18 -21" stroke="#f2f2f2" stroke-width="2" fill="none" opacity="0.75"/><rect x="822" y="194" width="68" height="68" rx="3"
        fill="#2dd4bf" opacity="0.491"
        stroke="none" stroke-width="0"/><path d="M842 228l10 11 18 -21" stroke="#f2f2f2" stroke-width="2" fill="none" opacity="0.75"/><rect x="896" y="194" width="68" height="68" rx="3"
        fill="#2dd4bf" opacity="0.473"
        stroke="none" stroke-width="0"/><path d="M916 228l10 11 18 -21" stroke="#f2f2f2" stroke-width="2" fill="none" opacity="0.75"/><rect x="970" y="194" width="68" height="68" rx="3"
        fill="#2dd4bf" opacity="0.461"
        stroke="none" stroke-width="0"/><path d="M990 228l10 11 18 -21" stroke="#f2f2f2" stroke-width="2" fill="none" opacity="0.75"/><rect x="156" y="268" width="68" height="68" rx="3"
        fill="#2dd4bf" opacity="0.474"
        stroke="none" stroke-width="0"/><path d="M176 302l10 11 18 -21" stroke="#f2f2f2" stroke-width="2" fill="none" opacity="0.75"/><rect x="230" y="268" width="68" height="68" rx="3"
        fill="#2dd4bf" opacity="0.230"
        stroke="none" stroke-width="0"/><path d="M250 302l10 11 18 -21" stroke="#f2f2f2" stroke-width="2" fill="none" opacity="0.75"/><rect x="304" y="268" width="68" height="68" rx="3"
        fill="#2dd4bf" opacity="0.389"
        stroke="none" stroke-width="0"/><path d="M324 302l10 11 18 -21" stroke="#f2f2f2" stroke-width="2" fill="none" opacity="0.75"/><rect x="378" y="268" width="68" height="68" rx="3"
        fill="#2dd4bf" opacity="0.433"
        stroke="none" stroke-width="0"/><path d="M398 302l10 11 18 -21" stroke="#f2f2f2" stroke-width="2" fill="none" opacity="0.75"/><rect x="452" y="268" width="68" height="68" rx="3"
        fill="#2dd4bf" opacity="0.509"
        stroke="none" stroke-width="0"/><path d="M472 302l10 11 18 -21" stroke="#f2f2f2" stroke-width="2" fill="none" opacity="0.75"/><rect x="526" y="268" width="68" height="68" rx="3"
        fill="#2dd4bf" opacity="0.385"
        stroke="none" stroke-width="0"/><path d="M546 302l10 11 18 -21" stroke="#f2f2f2" stroke-width="2" fill="none" opacity="0.75"/><rect x="600" y="268" width="68" height="68" rx="3"
        fill="#2dd4bf" opacity="0.471"
        stroke="none" stroke-width="0"/><path d="M620 302l10 11 18 -21" stroke="#f2f2f2" stroke-width="2" fill="none" opacity="0.75"/><rect x="674" y="268" width="68" height="68" rx="3"
        fill="#2dd4bf" opacity="0.437"
        stroke="none" stroke-width="0"/><path d="M694 302l10 11 18 -21" stroke="#f2f2f2" stroke-width="2" fill="none" opacity="0.75"/><rect x="748" y="268" width="68" height="68" rx="3"
        fill="#2dd4bf" opacity="0.468"
        stroke="none" stroke-width="0"/><path d="M768 302l10 11 18 -21" stroke="#f2f2f2" stroke-width="2" fill="none" opacity="0.75"/><rect x="822" y="268" width="68" height="68" rx="3"
        fill="#2dd4bf" opacity="0.290"
        stroke="none" stroke-width="0"/><path d="M842 302l10 11 18 -21" stroke="#f2f2f2" stroke-width="2" fill="none" opacity="0.75"/><rect x="896" y="268" width="68" height="68" rx="3"
        fill="#2dd4bf" opacity="0.315"
        stroke="none" stroke-width="0"/><path d="M916 302l10 11 18 -21" stroke="#f2f2f2" stroke-width="2" fill="none" opacity="0.75"/><rect x="970" y="268" width="68" height="68" rx="3"
        fill="#2dd4bf" opacity="0.490"
        stroke="none" stroke-width="0"/><path d="M990 302l10 11 18 -21" stroke="#f2f2f2" stroke-width="2" fill="none" opacity="0.75"/><rect x="156" y="342" width="68" height="68" rx="3"
        fill="#2dd4bf" opacity="0.380"
        stroke="none" stroke-width="0"/><path d="M176 376l10 11 18 -21" stroke="#f2f2f2" stroke-width="2" fill="none" opacity="0.75"/><rect x="230" y="342" width="68" height="68" rx="3"
        fill="#2dd4bf" opacity="0.247"
        stroke="none" stroke-width="0"/><path d="M250 376l10 11 18 -21" stroke="#f2f2f2" stroke-width="2" fill="none" opacity="0.75"/><rect x="304" y="342" width="68" height="68" rx="3"
        fill="#2dd4bf" opacity="0.289"
        stroke="none" stroke-width="0"/><path d="M324 376l10 11 18 -21" stroke="#f2f2f2" stroke-width="2" fill="none" opacity="0.75"/><rect x="378" y="342" width="68" height="68" rx="3"
        fill="#2dd4bf" opacity="0.426"
        stroke="none" stroke-width="0"/><path d="M398 376l10 11 18 -21" stroke="#f2f2f2" stroke-width="2" fill="none" opacity="0.75"/><rect x="452" y="342" width="68" height="68" rx="3"
        fill="#2dd4bf" opacity="0.481"
        stroke="none" stroke-width="0"/><path d="M472 376l10 11 18 -21" stroke="#f2f2f2" stroke-width="2" fill="none" opacity="0.75"/><rect x="526" y="342" width="68" height="68" rx="3"
        fill="#2dd4bf" opacity="0.453"
        stroke="none" stroke-width="0"/><path d="M546 376l10 11 18 -21" stroke="#f2f2f2" stroke-width="2" fill="none" opacity="0.75"/><rect x="600" y="342" width="68" height="68" rx="3"
        fill="#2dd4bf" opacity="0.320"
        stroke="none" stroke-width="0"/><path d="M620 376l10 11 18 -21" stroke="#f2f2f2" stroke-width="2" fill="none" opacity="0.75"/><rect x="674" y="342" width="68" height="68" rx="3"
        fill="#6b1d2b" opacity="0.65"
        stroke="#fb7185" stroke-width="1.5"/><path d="M696 364l24 24M720 364l-24 24" stroke="#fb7185" stroke-width="2"/><rect x="748" y="342" width="68" height="68" rx="3"
        fill="#2dd4bf" opacity="0.308"
        stroke="none" stroke-width="0"/><path d="M768 376l10 11 18 -21" stroke="#f2f2f2" stroke-width="2" fill="none" opacity="0.75"/><rect x="822" y="342" width="68" height="68" rx="3"
        fill="#2dd4bf" opacity="0.287"
        stroke="none" stroke-width="0"/><path d="M842 376l10 11 18 -21" stroke="#f2f2f2" stroke-width="2" fill="none" opacity="0.75"/><rect x="896" y="342" width="68" height="68" rx="3"
        fill="#2dd4bf" opacity="0.334"
        stroke="none" stroke-width="0"/><path d="M916 376l10 11 18 -21" stroke="#f2f2f2" stroke-width="2" fill="none" opacity="0.75"/><rect x="970" y="342" width="68" height="68" rx="3"
        fill="#2dd4bf" opacity="0.254"
        stroke="none" stroke-width="0"/><path d="M990 376l10 11 18 -21" stroke="#f2f2f2" stroke-width="2" fill="none" opacity="0.75"/><rect x="156" y="416" width="68" height="68" rx="3"
        fill="#2dd4bf" opacity="0.298"
        stroke="none" stroke-width="0"/><path d="M176 450l10 11 18 -21" stroke="#f2f2f2" stroke-width="2" fill="none" opacity="0.75"/><rect x="230" y="416" width="68" height="68" rx="3"
        fill="#2dd4bf" opacity="0.280"
        stroke="none" stroke-width="0"/><path d="M250 450l10 11 18 -21" stroke="#f2f2f2" stroke-width="2" fill="none" opacity="0.75"/><rect x="304" y="416" width="68" height="68" rx="3"
        fill="#2dd4bf" opacity="0.474"
        stroke="none" stroke-width="0"/><path d="M324 450l10 11 18 -21" stroke="#f2f2f2" stroke-width="2" fill="none" opacity="0.75"/><rect x="378" y="416" width="68" height="68" rx="3"
        fill="#2dd4bf" opacity="0.253"
        stroke="none" stroke-width="0"/><path d="M398 450l10 11 18 -21" stroke="#f2f2f2" stroke-width="2" fill="none" opacity="0.75"/><rect x="452" y="416" width="68" height="68" rx="3"
        fill="#2dd4bf" opacity="0.221"
        stroke="none" stroke-width="0"/><path d="M472 450l10 11 18 -21" stroke="#f2f2f2" stroke-width="2" fill="none" opacity="0.75"/><rect x="526" y="416" width="68" height="68" rx="3"
        fill="#2dd4bf" opacity="0.510"
        stroke="none" stroke-width="0"/><path d="M546 450l10 11 18 -21" stroke="#f2f2f2" stroke-width="2" fill="none" opacity="0.75"/><rect x="600" y="416" width="68" height="68" rx="3"
        fill="#2dd4bf" opacity="0.357"
        stroke="none" stroke-width="0"/><path d="M620 450l10 11 18 -21" stroke="#f2f2f2" stroke-width="2" fill="none" opacity="0.75"/><rect x="674" y="416" width="68" height="68" rx="3"
        fill="#6b1d2b" opacity="0.65"
        stroke="#fb7185" stroke-width="1.5"/><path d="M696 438l24 24M720 438l-24 24" stroke="#fb7185" stroke-width="2"/><rect x="748" y="416" width="68" height="68" rx="3"
        fill="#2dd4bf" opacity="0.270"
        stroke="none" stroke-width="0"/><path d="M768 450l10 11 18 -21" stroke="#f2f2f2" stroke-width="2" fill="none" opacity="0.75"/><rect x="822" y="416" width="68" height="68" rx="3"
        fill="#2dd4bf" opacity="0.496"
        stroke="none" stroke-width="0"/><path d="M842 450l10 11 18 -21" stroke="#f2f2f2" stroke-width="2" fill="none" opacity="0.75"/><rect x="896" y="416" width="68" height="68" rx="3"
        fill="#2dd4bf" opacity="0.469"
        stroke="none" stroke-width="0"/><path d="M916 450l10 11 18 -21" stroke="#f2f2f2" stroke-width="2" fill="none" opacity="0.75"/><rect x="970" y="416" width="68" height="68" rx="3"
        fill="#2dd4bf" opacity="0.371"
        stroke="none" stroke-width="0"/><path d="M990 450l10 11 18 -21" stroke="#f2f2f2" stroke-width="2" fill="none" opacity="0.75"/><g font-family="Geist Mono, ui-monospace, monospace">
    <text x="48" y="658" font-size="19" letter-spacing="1.6" fill="#8f8f8f">FIG.06  GOLDEN SET</text>
    <text x="48" y="692" font-size="30" letter-spacing="-0.2" fill="#f2f2f2">The gate, not the discussion</text>
    <text x="48" y="720" font-size="17" letter-spacing="0.5" fill="#8f8f8f">60 cases, run in CI on every prompt edit</text>
  </g>
  <rect width="1200" height="750" filter="url(#grain)" opacity="0.9"/>
  <rect x="0.5" y="0.5" width="1199" height="749" fill="none" stroke="rgba(255,255,255,0.10)"/>
</svg>